<?xml version="1.0" encoding="utf-8" standalone="no"?>
<!DOCTYPE svg PUBLIC "-//W3C//DTD SVG 1.1//EN"
  "http://www.w3.org/Graphics/SVG/1.1/DTD/svg11.dtd">
<svg xmlns:xlink="http://www.w3.org/1999/xlink" width="1008pt" height="504pt" viewBox="0 0 1008 504" xmlns="http://www.w3.org/2000/svg" version="1.1">
 <metadata>
  <rdf:RDF xmlns:dc="http://purl.org/dc/elements/1.1/" xmlns:cc="http://creativecommons.org/ns#" xmlns:rdf="http://www.w3.org/1999/02/22-rdf-syntax-ns#">
   <cc:Work>
    <dc:type rdf:resource="http://purl.org/dc/dcmitype/StillImage"/>
    <dc:date>2025-05-26T10:34:20.519508</dc:date>
    <dc:format>image/svg+xml</dc:format>
    <dc:creator>
     <cc:Agent>
      <dc:title>Matplotlib v3.7.1, https://matplotlib.org/</dc:title>
     </cc:Agent>
    </dc:creator>
   </cc:Work>
  </rdf:RDF>
 </metadata>
 <defs>
  <style type="text/css">*{stroke-linejoin: round; stroke-linecap: butt}</style>
 </defs>
 <g id="figure_1">
  <g id="patch_1">
   <path d="M 0 504 
L 1008 504 
L 1008 0 
L 0 0 
z
" style="fill: #ffffff"/>
  </g>
  <g id="axes_1">
   <g id="patch_2">
    <path d="M 63.05625 466.36375 
L 995.04 466.36375 
L 995.04 29.76 
L 63.05625 29.76 
z
" style="fill: #eaeaf2"/>
   </g>
   <g id="matplotlib.axis_1">
    <g id="xtick_1">
     <g id="line2d_1">
      <path d="M 81.695925 466.36375 
L 81.695925 29.76 
" clip-path="url(#pd0c62ef81c)" style="fill: none; stroke: #ffffff; stroke-linecap: round"/>
     </g>
     <g id="text_1">
      <!--  nᵗ  -->
      <g style="fill: #262626" transform="translate(72.210769 486.741094) scale(0.15 -0.15)">
       <defs>
        <path id="Junicode-20" transform="scale(0.015625)"/>
        <path id="Junicode-6e" d="M 2800 397 
Q 2800 153 3159 153 
Q 3203 153 3203 64 
Q 3203 -25 3159 -25 
Q 2919 0 2575 0 
Q 2231 0 1978 -25 
Q 1934 -25 1934 64 
Q 1934 153 1978 153 
Q 2322 153 2322 397 
L 2322 1656 
Q 2322 1919 2276 2101 
Q 2231 2284 2134 2361 
Q 2038 2438 1794 2438 
Q 1663 2438 1556 2384 
Q 1450 2331 1348 2257 
Q 1247 2184 1176 2076 
Q 1106 1969 1106 1844 
L 1106 397 
Q 1106 153 1441 153 
Q 1484 153 1484 64 
Q 1484 -25 1441 -25 
Q 1200 0 856 0 
Q 513 0 269 -25 
Q 225 -25 225 64 
Q 225 153 269 153 
Q 628 153 628 397 
L 628 1794 
Q 628 2194 366 2194 
Q 313 2194 313 2281 
Q 313 2369 366 2369 
Q 484 2369 639 2462 
Q 794 2556 909 2657 
Q 1025 2759 1072 2759 
Q 1116 2759 1116 2711 
Q 1116 2663 1109 2580 
Q 1103 2497 1103 2433 
Q 1103 2369 1150 2369 
Q 1175 2369 1197 2388 
Q 1531 2719 2006 2719 
Q 2469 2719 2697 2259 
Q 2800 2053 2800 1484 
L 2800 397 
z
" transform="scale(0.015625)"/>
        <path id="Junicode-1d57" d="M 1288 1806 
Q 1084 1594 772 1594 
Q 363 1597 300 1938 
Q 288 2000 288 2075 
L 288 2975 
Q 288 3034 231 3034 
L 128 3034 
Q 97 3034 97 3103 
Q 97 3175 128 3172 
Q 244 3172 378 3284 
Q 506 3391 550 3519 
Q 556 3541 628 3522 
Q 709 3500 722 3466 
L 722 3291 
Q 722 3231 781 3231 
L 1184 3231 
Q 1213 3231 1213 3134 
Q 1213 3034 1184 3034 
L 781 3034 
Q 722 3034 722 2975 
L 722 2197 
Q 722 1969 784 1900 
Q 834 1841 950 1841 
Q 1047 1841 1188 1931 
Q 1209 1947 1259 1884 
Q 1306 1828 1288 1806 
z
" transform="scale(0.015625)"/>
       </defs>
       <use xlink:href="#Junicode-20"/>
       <use xlink:href="#Junicode-6e" x="27.294922"/>
       <use xlink:href="#Junicode-1d57" x="79.492188"/>
       <use xlink:href="#Junicode-20" x="99.169922"/>
      </g>
     </g>
    </g>
    <g id="xtick_2">
     <g id="line2d_2">
      <path d="M 118.975275 466.36375 
L 118.975275 29.76 
" clip-path="url(#pd0c62ef81c)" style="fill: none; stroke: #ffffff; stroke-linecap: round"/>
     </g>
     <g id="text_2">
      <!-- ijn  -->
      <g style="fill: #262626" transform="translate(109.195978 486.741094) scale(0.15 -0.15)">
       <defs>
        <path id="Junicode-69" d="M 1459 -25 
Q 1222 0 875 0 
Q 528 0 275 -25 
Q 231 -25 231 64 
Q 231 153 275 153 
Q 628 153 628 397 
L 628 1784 
Q 628 2216 341 2216 
Q 288 2216 288 2303 
Q 288 2391 341 2391 
Q 444 2391 645 2497 
Q 847 2603 950 2681 
Q 1053 2759 1088 2759 
Q 1125 2759 1125 2709 
Q 1106 2372 1106 2191 
L 1106 397 
Q 1106 153 1459 153 
Q 1503 153 1503 64 
Q 1503 -25 1459 -25 
z
M 469 3615 
Q 469 3756 564 3851 
Q 659 3947 800 3947 
Q 941 3947 1041 3851 
Q 1141 3756 1141 3615 
Q 1141 3475 1041 3375 
Q 941 3275 800 3275 
Q 659 3275 564 3375 
Q 469 3475 469 3615 
z
" transform="scale(0.015625)"/>
        <path id="Junicode-6a" d="M 1141 3615 
Q 1141 3475 1041 3375 
Q 941 3275 800 3275 
Q 659 3275 564 3375 
Q 469 3475 469 3615 
Q 469 3756 564 3851 
Q 659 3947 800 3947 
Q 941 3947 1041 3851 
Q 1141 3756 1141 3615 
z
M 1119 184 
Q 1119 -844 775 -1325 
Q 484 -1734 0 -1734 
Q -156 -1734 -273 -1646 
Q -391 -1559 -391 -1434 
Q -391 -1334 -314 -1275 
Q -238 -1216 -147 -1216 
Q 6 -1216 129 -1337 
Q 253 -1459 331 -1459 
Q 641 -1459 641 -794 
L 641 1784 
Q 641 2216 353 2216 
Q 300 2216 300 2303 
Q 300 2391 353 2391 
Q 456 2391 657 2497 
Q 859 2603 962 2681 
Q 1066 2759 1100 2759 
Q 1138 2759 1138 2709 
Q 1119 2372 1119 2191 
L 1119 184 
z
" transform="scale(0.015625)"/>
       </defs>
       <use xlink:href="#Junicode-69"/>
       <use xlink:href="#Junicode-6a" x="25.585938"/>
       <use xlink:href="#Junicode-6e" x="50.878906"/>
       <use xlink:href="#Junicode-20" x="103.076172"/>
      </g>
     </g>
    </g>
    <g id="xtick_3">
     <g id="line2d_3">
      <path d="M 156.254625 466.36375 
L 156.254625 29.76 
" clip-path="url(#pd0c62ef81c)" style="fill: none; stroke: #ffffff; stroke-linecap: round"/>
     </g>
     <g id="text_3">
      <!--  nᵗ -->
      <g style="fill: #262626" transform="translate(148.816734 486.741094) scale(0.15 -0.15)">
       <use xlink:href="#Junicode-20"/>
       <use xlink:href="#Junicode-6e" x="27.294922"/>
       <use xlink:href="#Junicode-1d57" x="79.492188"/>
      </g>
     </g>
    </g>
    <g id="xtick_4">
     <g id="line2d_4">
      <path d="M 193.533975 466.36375 
L 193.533975 29.76 
" clip-path="url(#pd0c62ef81c)" style="fill: none; stroke: #ffffff; stroke-linecap: round"/>
     </g>
     <g id="text_4">
      <!-- ʼen -->
      <g style="fill: #262626" transform="translate(185.1246 486.741094) scale(0.15 -0.15)">
       <defs>
        <path id="Junicode-2bc" d="M 1038 4078 
Q 1038 3484 456 3050 
Q 369 2984 269 2925 
L 241 2922 
Q 194 2938 166 2994 
L 159 3022 
L 166 3028 
Q 616 3356 641 3763 
Q 641 3781 641 3803 
Q 641 3925 538 3978 
L 419 4034 
Q 222 4141 219 4353 
Q 219 4578 447 4619 
Q 491 4628 538 4628 
Q 775 4628 928 4422 
Q 1038 4269 1038 4078 
z
" transform="scale(0.015625)"/>
        <path id="Junicode-65" d="M 266 1347 
Q 266 1903 620 2311 
Q 975 2719 1416 2719 
Q 1856 2719 2128 2412 
Q 2400 2106 2400 1912 
Q 2400 1719 2241 1716 
L 838 1716 
Q 744 1716 744 1509 
Q 744 1009 983 651 
Q 1222 294 1644 294 
Q 1959 294 2272 481 
Q 2288 491 2306 491 
Q 2344 491 2372 456 
Q 2394 434 2394 391 
Q 2394 375 2381 366 
Q 1888 -72 1409 -72 
Q 931 -72 598 359 
Q 266 791 266 1347 
z
M 816 1969 
Q 816 1925 891 1925 
L 1894 1925 
Q 1941 1925 1941 1978 
Q 1941 2116 1770 2325 
Q 1600 2534 1416 2534 
Q 1213 2534 1064 2398 
Q 916 2263 825 2016 
Q 816 1991 816 1969 
z
" transform="scale(0.015625)"/>
       </defs>
       <use xlink:href="#Junicode-2bc"/>
       <use xlink:href="#Junicode-65" x="18.994141"/>
       <use xlink:href="#Junicode-6e" x="59.912109"/>
      </g>
     </g>
    </g>
    <g id="xtick_5">
     <g id="line2d_5">
      <path d="M 230.813325 466.36375 
L 230.813325 29.76 
" clip-path="url(#pd0c62ef81c)" style="fill: none; stroke: #ffffff; stroke-linecap: round"/>
     </g>
     <g id="text_5">
      <!--  ni -->
      <g style="fill: #262626" transform="translate(222.931294 486.741094) scale(0.15 -0.15)">
       <use xlink:href="#Junicode-20"/>
       <use xlink:href="#Junicode-6e" x="27.294922"/>
       <use xlink:href="#Junicode-69" x="79.492188"/>
      </g>
     </g>
    </g>
    <g id="xtick_6">
     <g id="line2d_6">
      <path d="M 268.092675 466.36375 
L 268.092675 29.76 
" clip-path="url(#pd0c62ef81c)" style="fill: none; stroke: #ffffff; stroke-linecap: round"/>
     </g>
     <g id="text_6">
      <!-- i  -->
      <g style="fill: #262626" transform="translate(262.228612 486.741094) scale(0.15 -0.15)">
       <defs>
        <path id="Junicode-e554" d="M 1153 2675 
L 1122 2034 
Q 1119 1941 1119 1850 
L 1119 184 
Q 1119 -834 775 -1325 
Q 528 -1669 172 -1722 
Q 91 -1734 0 -1734 
Q -200 -1734 -319 -1613 
Q -391 -1534 -391 -1434 
Q -391 -1294 -256 -1238 
Q -206 -1216 -147 -1216 
Q 6 -1216 128 -1338 
Q 256 -1459 331 -1459 
Q 641 -1459 641 -794 
L 641 1663 
Q 641 2194 366 2194 
Q 319 2194 319 2278 
Q 319 2369 366 2369 
Q 516 2369 881 2619 
Q 950 2666 991 2700 
Q 1053 2759 1094 2759 
Q 1147 2759 1153 2675 
z
M 0 3494 
Q -50 3494 -50 3675 
Q -50 3856 0 3856 
L 1619 3856 
Q 1672 3856 1672 3675 
Q 1672 3494 1619 3494 
L 0 3494 
z
" transform="scale(0.015625)"/>
       </defs>
       <use xlink:href="#Junicode-69"/>
       <use xlink:href="#Junicode-e554" x="25.585938"/>
       <use xlink:href="#Junicode-20" x="50.878906"/>
      </g>
     </g>
    </g>
    <g id="xtick_7">
     <g id="line2d_7">
      <path d="M 305.372025 466.36375 
L 305.372025 29.76 
" clip-path="url(#pd0c62ef81c)" style="fill: none; stroke: #ffffff; stroke-linecap: round"/>
     </g>
     <g id="text_7">
      <!-- ijn -->
      <g style="fill: #262626" transform="translate(297.639994 486.741094) scale(0.15 -0.15)">
       <use xlink:href="#Junicode-69"/>
       <use xlink:href="#Junicode-6a" x="25.585938"/>
       <use xlink:href="#Junicode-6e" x="50.878906"/>
      </g>
     </g>
    </g>
    <g id="xtick_8">
     <g id="line2d_8">
      <path d="M 342.651375 466.36375 
L 342.651375 29.76 
" clip-path="url(#pd0c62ef81c)" style="fill: none; stroke: #ffffff; stroke-linecap: round"/>
     </g>
     <g id="text_8">
      <!-- nᵗ  -->
      <g style="fill: #262626" transform="translate(335.213484 486.741094) scale(0.15 -0.15)">
       <use xlink:href="#Junicode-6e"/>
       <use xlink:href="#Junicode-1d57" x="52.197266"/>
       <use xlink:href="#Junicode-20" x="71.875"/>
      </g>
     </g>
    </g>
    <g id="xtick_9">
     <g id="line2d_9">
      <path d="M 379.930725 466.36375 
L 379.930725 29.76 
" clip-path="url(#pd0c62ef81c)" style="fill: none; stroke: #ffffff; stroke-linecap: round"/>
     </g>
     <g id="text_9">
      <!--  en  -->
      <g style="fill: #262626" transform="translate(368.851819 486.741094) scale(0.15 -0.15)">
       <use xlink:href="#Junicode-20"/>
       <use xlink:href="#Junicode-65" x="27.294922"/>
       <use xlink:href="#Junicode-6e" x="68.212891"/>
       <use xlink:href="#Junicode-20" x="120.410156"/>
      </g>
     </g>
    </g>
    <g id="xtick_10">
     <g id="line2d_10">
      <path d="M 417.210075 466.36375 
L 417.210075 29.76 
" clip-path="url(#pd0c62ef81c)" style="fill: none; stroke: #ffffff; stroke-linecap: round"/>
     </g>
     <g id="text_10">
      <!-- si -->
      <g style="fill: #262626" transform="translate(410.804606 486.741094) scale(0.15 -0.15)">
       <defs>
        <path id="Junicode-73" d="M 2028 769 
Q 2028 516 1897 317 
Q 1766 119 1537 20 
Q 1309 -78 1056 -78 
Q 569 -78 306 109 
Q 244 306 244 647 
L 244 788 
Q 244 834 317 834 
Q 391 834 397 788 
Q 413 666 600 394 
Q 788 122 1159 122 
Q 1344 122 1503 237 
Q 1663 353 1663 572 
Q 1663 791 1528 923 
Q 1394 1056 1050 1148 
Q 706 1241 497 1444 
Q 288 1647 288 1959 
Q 288 2278 550 2498 
Q 813 2719 1216 2719 
Q 1619 2719 1863 2606 
Q 1959 2344 1959 2075 
L 1959 2041 
Q 1959 1997 1890 1997 
Q 1822 1997 1813 2041 
Q 1781 2209 1601 2368 
Q 1422 2528 1181 2528 
Q 941 2528 794 2411 
Q 647 2294 647 2094 
Q 647 1906 751 1801 
Q 856 1697 1272 1576 
Q 1688 1456 1858 1273 
Q 2028 1091 2028 769 
z
" transform="scale(0.015625)"/>
       </defs>
       <use xlink:href="#Junicode-73"/>
       <use xlink:href="#Junicode-69" x="34.521484"/>
       <use xlink:href="#Junicode-e554" x="60.107422"/>
      </g>
     </g>
    </g>
    <g id="xtick_11">
     <g id="line2d_11">
      <path d="M 454.489425 466.36375 
L 454.489425 29.76 
" clip-path="url(#pd0c62ef81c)" style="fill: none; stroke: #ffffff; stroke-linecap: round"/>
     </g>
     <g id="text_11">
      <!--  sij -->
      <g style="fill: #262626" transform="translate(446.036691 486.741094) scale(0.15 -0.15)">
       <use xlink:href="#Junicode-20"/>
       <use xlink:href="#Junicode-73" x="27.294922"/>
       <use xlink:href="#Junicode-69" x="61.816406"/>
       <use xlink:href="#Junicode-6a" x="87.402344"/>
      </g>
     </g>
    </g>
    <g id="xtick_12">
     <g id="line2d_12">
      <path d="M 491.768775 466.36375 
L 491.768775 29.76 
" clip-path="url(#pd0c62ef81c)" style="fill: none; stroke: #ffffff; stroke-linecap: round"/>
     </g>
     <g id="text_12">
      <!-- niet -->
      <g style="fill: #262626" transform="translate(480.3969 486.741094) scale(0.15 -0.15)">
       <defs>
        <path id="Junicode-74" d="M 603 666 
L 603 2250 
Q 603 2375 478 2375 
L 250 2375 
Q 206 2375 206 2447 
Q 206 2519 250 2519 
Q 391 2519 541 2630 
Q 691 2741 791 2873 
Q 891 3006 941 3128 
Q 953 3156 984 3156 
Q 1016 3156 1048 3140 
Q 1081 3125 1081 3097 
L 1081 2791 
Q 1081 2656 1209 2656 
L 1972 2656 
Q 2016 2656 2016 2515 
Q 2016 2375 1972 2375 
L 1209 2375 
Q 1081 2375 1081 2250 
L 1081 991 
Q 1081 581 1198 406 
Q 1316 231 1588 231 
Q 1750 231 1925 353 
Q 1944 366 1961 366 
Q 1978 366 1997 331 
Q 2016 297 2016 275 
Q 2016 253 2009 244 
Q 1747 -72 1322 -72 
Q 931 -72 767 98 
Q 603 269 603 666 
z
" transform="scale(0.015625)"/>
       </defs>
       <use xlink:href="#Junicode-6e"/>
       <use xlink:href="#Junicode-69" x="52.197266"/>
       <use xlink:href="#Junicode-65" x="77.783203"/>
       <use xlink:href="#Junicode-74" x="118.701172"/>
      </g>
     </g>
    </g>
    <g id="xtick_13">
     <g id="line2d_13">
      <path d="M 529.048125 466.36375 
L 529.048125 29.76 
" clip-path="url(#pd0c62ef81c)" style="fill: none; stroke: #ffffff; stroke-linecap: round"/>
     </g>
     <g id="text_13">
      <!-- ʼn  -->
      <g style="fill: #262626" transform="translate(521.660625 486.741094) scale(0.15 -0.15)">
       <use xlink:href="#Junicode-2bc"/>
       <use xlink:href="#Junicode-6e" x="18.994141"/>
       <use xlink:href="#Junicode-20" x="71.191406"/>
      </g>
     </g>
    </g>
    <g id="xtick_14">
     <g id="line2d_14">
      <path d="M 566.327475 466.36375 
L 566.327475 29.76 
" clip-path="url(#pd0c62ef81c)" style="fill: none; stroke: #ffffff; stroke-linecap: round"/>
     </g>
     <g id="text_14">
      <!-- ʼen  -->
      <g style="fill: #262626" transform="translate(555.870834 486.741094) scale(0.15 -0.15)">
       <use xlink:href="#Junicode-2bc"/>
       <use xlink:href="#Junicode-65" x="18.994141"/>
       <use xlink:href="#Junicode-6e" x="59.912109"/>
       <use xlink:href="#Junicode-20" x="112.109375"/>
      </g>
     </g>
    </g>
    <g id="xtick_15">
     <g id="line2d_15">
      <path d="M 603.606825 466.36375 
L 603.606825 29.76 
" clip-path="url(#pd0c62ef81c)" style="fill: none; stroke: #ffffff; stroke-linecap: round"/>
     </g>
     <g id="text_15">
      <!-- sijn -->
      <g style="fill: #262626" transform="translate(593.286122 486.741094) scale(0.15 -0.15)">
       <use xlink:href="#Junicode-73"/>
       <use xlink:href="#Junicode-69" x="34.521484"/>
       <use xlink:href="#Junicode-6a" x="60.107422"/>
       <use xlink:href="#Junicode-6e" x="85.400391"/>
      </g>
     </g>
    </g>
    <g id="xtick_16">
     <g id="line2d_16">
      <path d="M 640.886175 466.36375 
L 640.886175 29.76 
" clip-path="url(#pd0c62ef81c)" style="fill: none; stroke: #ffffff; stroke-linecap: round"/>
     </g>
     <g id="text_16">
      <!-- iet -->
      <g style="fill: #262626" transform="translate(633.429534 486.741094) scale(0.15 -0.15)">
       <use xlink:href="#Junicode-69"/>
       <use xlink:href="#Junicode-65" x="25.585938"/>
       <use xlink:href="#Junicode-74" x="66.503906"/>
      </g>
     </g>
    </g>
    <g id="xtick_17">
     <g id="line2d_17">
      <path d="M 678.165525 466.36375 
L 678.165525 29.76 
" clip-path="url(#pd0c62ef81c)" style="fill: none; stroke: #ffffff; stroke-linecap: round"/>
     </g>
     <g id="text_17">
      <!-- jn  -->
      <g style="fill: #262626" transform="translate(670.305759 486.741094) scale(0.15 -0.15)">
       <use xlink:href="#Junicode-6a"/>
       <use xlink:href="#Junicode-6e" x="25.292969"/>
       <use xlink:href="#Junicode-20" x="77.490234"/>
      </g>
     </g>
    </g>
    <g id="xtick_18">
     <g id="line2d_18">
      <path d="M 715.444875 466.36375 
L 715.444875 29.76 
" clip-path="url(#pd0c62ef81c)" style="fill: none; stroke: #ffffff; stroke-linecap: round"/>
     </g>
     <g id="text_18">
      <!--  si -->
      <g style="fill: #262626" transform="translate(706.992141 486.741094) scale(0.15 -0.15)">
       <use xlink:href="#Junicode-20"/>
       <use xlink:href="#Junicode-73" x="27.294922"/>
       <use xlink:href="#Junicode-69" x="61.816406"/>
       <use xlink:href="#Junicode-e554" x="87.402344"/>
      </g>
     </g>
    </g>
    <g id="xtick_19">
     <g id="line2d_19">
      <path d="M 752.724225 466.36375 
L 752.724225 29.76 
" clip-path="url(#pd0c62ef81c)" style="fill: none; stroke: #ffffff; stroke-linecap: round"/>
     </g>
     <g id="text_19">
      <!-- sij -->
      <g style="fill: #262626" transform="translate(746.318756 486.741094) scale(0.15 -0.15)">
       <use xlink:href="#Junicode-73"/>
       <use xlink:href="#Junicode-69" x="34.521484"/>
       <use xlink:href="#Junicode-6a" x="60.107422"/>
      </g>
     </g>
    </g>
    <g id="xtick_20">
     <g id="line2d_20">
      <path d="M 790.003575 466.36375 
L 790.003575 29.76 
" clip-path="url(#pd0c62ef81c)" style="fill: none; stroke: #ffffff; stroke-linecap: round"/>
     </g>
     <g id="text_20">
      <!-- si  -->
      <g style="fill: #262626" transform="translate(781.550841 486.741094) scale(0.15 -0.15)">
       <use xlink:href="#Junicode-73"/>
       <use xlink:href="#Junicode-69" x="34.521484"/>
       <use xlink:href="#Junicode-e554" x="60.107422"/>
       <use xlink:href="#Junicode-20" x="85.400391"/>
      </g>
     </g>
    </g>
    <g id="xtick_21">
     <g id="line2d_21">
      <path d="M 827.282925 466.36375 
L 827.282925 29.76 
" clip-path="url(#pd0c62ef81c)" style="fill: none; stroke: #ffffff; stroke-linecap: round"/>
     </g>
     <g id="text_21">
      <!--  . w -->
      <g style="fill: #262626" transform="translate(816.410269 486.741094) scale(0.15 -0.15)">
       <defs>
        <path id="Junicode-2e" d="M 434 306 
Q 434 466 546 562 
Q 659 659 831 659 
Q 1003 659 1097 543 
Q 1191 428 1191 270 
Q 1191 113 1083 17 
Q 975 -78 809 -78 
Q 644 -78 539 34 
Q 434 147 434 306 
z
" transform="scale(0.015625)"/>
        <path id="Junicode-77" d="M 359 2284 
Q 269 2509 38 2509 
Q -6 2509 -6 2592 
Q -6 2675 38 2675 
Q 219 2656 587 2656 
Q 956 2656 1147 2675 
Q 1191 2675 1191 2592 
Q 1191 2509 1147 2509 
Q 903 2509 903 2338 
Q 903 2284 916 2247 
L 1416 716 
Q 1434 659 1459 659 
Q 1484 659 1503 716 
L 1972 2075 
Q 1991 2138 1991 2163 
Q 1991 2347 1831 2456 
Q 1747 2509 1638 2509 
Q 1594 2509 1594 2592 
Q 1594 2675 1638 2675 
Q 1819 2656 2187 2656 
Q 2556 2656 2747 2675 
Q 2791 2675 2791 2592 
Q 2791 2509 2747 2509 
Q 2503 2509 2503 2338 
Q 2503 2284 2516 2247 
L 3016 716 
Q 3034 659 3059 659 
Q 3084 659 3103 716 
L 3634 2272 
Q 3647 2303 3647 2344 
Q 3647 2509 3347 2509 
Q 3303 2509 3303 2592 
Q 3303 2675 3347 2675 
Q 3525 2656 3794 2656 
Q 4063 2656 4250 2675 
Q 4294 2675 4294 2592 
Q 4294 2509 4250 2509 
Q 3950 2509 3872 2284 
L 3091 50 
Q 3050 -72 2959 -72 
Q 2869 -72 2834 13 
L 2169 1728 
Q 2144 1791 2125 1791 
Q 2106 1791 2081 1728 
L 1491 50 
Q 1450 -72 1359 -72 
Q 1269 -72 1234 13 
L 359 2284 
z
" transform="scale(0.015625)"/>
       </defs>
       <use xlink:href="#Junicode-20"/>
       <use xlink:href="#Junicode-2e" x="27.294922"/>
       <use xlink:href="#Junicode-20" x="52.685547"/>
       <use xlink:href="#Junicode-77" x="79.980469"/>
      </g>
     </g>
    </g>
    <g id="xtick_22">
     <g id="line2d_22">
      <path d="M 864.562275 466.36375 
L 864.562275 29.76 
" clip-path="url(#pd0c62ef81c)" style="fill: none; stroke: #ffffff; stroke-linecap: round"/>
     </g>
     <g id="text_22">
      <!-- iħc -->
      <g style="fill: #262626" transform="translate(855.644306 486.741094) scale(0.15 -0.15)">
       <defs>
        <path id="Junicode-127" d="M 2881 397 
Q 2881 153 3278 153 
Q 3322 153 3322 63 
Q 3322 -25 3278 -25 
Q 3025 0 2659 0 
Q 2294 0 2047 -25 
Q 2003 -25 2003 63 
Q 2003 153 2047 153 
Q 2400 153 2400 397 
L 2400 1709 
Q 2400 2013 2216 2225 
Q 2031 2438 1797 2438 
Q 1513 2438 1309 2278 
Q 1106 2119 1106 1966 
L 1106 397 
Q 1106 153 1453 153 
Q 1497 153 1497 63 
Q 1497 -25 1453 -25 
Q 1206 0 853 0 
Q 500 0 250 -25 
Q 206 -25 206 63 
Q 206 153 250 153 
Q 628 153 628 397 
L 628 3250 
Q 628 3366 513 3366 
L -44 3366 
Q -100 3366 -100 3500 
Q -100 3634 -44 3634 
L 513 3634 
Q 622 3634 622 3750 
Q 622 3950 531 4025 
Q 444 4097 341 4097 
Q 288 4097 288 4181 
Q 288 4269 341 4269 
Q 484 4269 713 4409 
Q 944 4550 1000 4594 
Q 1056 4641 1091 4641 
Q 1125 4641 1125 4600 
Q 1125 4563 1116 4413 
Q 1106 4263 1106 4013 
L 1106 3750 
Q 1106 3634 1222 3634 
L 1813 3634 
Q 1866 3634 1866 3500 
Q 1866 3366 1813 3366 
L 1222 3366 
Q 1106 3366 1106 3250 
L 1106 2472 
Q 1106 2394 1147 2394 
Q 1188 2394 1209 2419 
Q 1494 2719 1984 2719 
Q 2400 2719 2641 2400 
Q 2881 2078 2881 1716 
L 2881 397 
z
" transform="scale(0.015625)"/>
        <path id="Junicode-63" d="M 2322 475 
Q 2356 491 2398 427 
Q 2441 363 2441 338 
Q 2441 319 2425 303 
Q 2344 231 2091 81 
Q 1838 -69 1394 -72 
Q 938 -72 603 293 
Q 269 659 269 1238 
Q 269 1816 650 2267 
Q 1031 2719 1634 2719 
Q 2247 2719 2363 2491 
Q 2381 2453 2381 2363 
Q 2381 2303 2312 2217 
Q 2244 2131 2191 2131 
Q 2138 2131 2106 2175 
Q 1863 2509 1566 2509 
Q 1269 2509 1025 2189 
Q 781 1869 778 1375 
Q 778 881 1058 581 
Q 1338 281 1656 281 
Q 1897 281 2322 475 
z
" transform="scale(0.015625)"/>
       </defs>
       <use xlink:href="#Junicode-69"/>
       <use xlink:href="#Junicode-127" x="25.585938"/>
       <use xlink:href="#Junicode-63" x="79.003906"/>
      </g>
     </g>
    </g>
    <g id="xtick_23">
     <g id="line2d_23">
      <path d="M 901.841625 466.36375 
L 901.841625 29.76 
" clip-path="url(#pd0c62ef81c)" style="fill: none; stroke: #ffffff; stroke-linecap: round"/>
     </g>
     <g id="text_23">
      <!--  nie -->
      <g style="fill: #262626" transform="translate(890.890453 486.741094) scale(0.15 -0.15)">
       <use xlink:href="#Junicode-20"/>
       <use xlink:href="#Junicode-6e" x="27.294922"/>
       <use xlink:href="#Junicode-69" x="79.492188"/>
       <use xlink:href="#Junicode-65" x="105.078125"/>
      </g>
     </g>
    </g>
    <g id="xtick_24">
     <g id="line2d_24">
      <path d="M 939.120975 466.36375 
L 939.120975 29.76 
" clip-path="url(#pd0c62ef81c)" style="fill: none; stroke: #ffffff; stroke-linecap: round"/>
     </g>
     <g id="text_24">
      <!-- iet  -->
      <g style="fill: #262626" transform="translate(929.617069 486.741094) scale(0.15 -0.15)">
       <use xlink:href="#Junicode-69"/>
       <use xlink:href="#Junicode-65" x="25.585938"/>
       <use xlink:href="#Junicode-74" x="66.503906"/>
       <use xlink:href="#Junicode-20" x="99.414062"/>
      </g>
     </g>
    </g>
    <g id="xtick_25">
     <g id="line2d_25">
      <path d="M 976.400325 466.36375 
L 976.400325 29.76 
" clip-path="url(#pd0c62ef81c)" style="fill: none; stroke: #ffffff; stroke-linecap: round"/>
     </g>
     <g id="text_25">
      <!-- hʼc  -->
      <g style="fill: #262626" transform="translate(965.929622 486.741094) scale(0.15 -0.15)">
       <defs>
        <path id="Junicode-68" d="M 2878 397 
Q 2878 153 3275 153 
Q 3319 153 3319 64 
Q 3319 -25 3275 -25 
Q 3019 0 2656 0 
Q 2294 0 2047 -25 
Q 2003 -25 2003 64 
Q 2003 153 2047 153 
Q 2400 153 2400 397 
L 2400 1709 
Q 2400 2013 2215 2225 
Q 2031 2438 1769 2438 
Q 1506 2438 1306 2278 
Q 1106 2119 1106 1966 
L 1106 397 
Q 1106 153 1453 153 
Q 1497 153 1497 64 
Q 1497 -25 1453 -25 
Q 1125 0 812 0 
Q 500 0 250 -25 
Q 206 -25 206 64 
Q 206 153 250 153 
Q 628 153 628 397 
L 628 3669 
Q 628 4103 341 4103 
Q 288 4103 288 4189 
Q 288 4275 341 4275 
Q 444 4275 645 4381 
Q 847 4488 950 4569 
Q 1050 4650 1087 4650 
Q 1125 4650 1125 4622 
Q 1125 4594 1115 4426 
Q 1106 4259 1106 4078 
L 1106 2472 
Q 1106 2394 1156 2394 
Q 1184 2394 1209 2419 
Q 1494 2719 1963 2719 
Q 2416 2719 2647 2389 
Q 2878 2059 2878 1716 
L 2878 397 
z
" transform="scale(0.015625)"/>
       </defs>
       <use xlink:href="#Junicode-68"/>
       <use xlink:href="#Junicode-2bc" x="53.417969"/>
       <use xlink:href="#Junicode-63" x="72.412109"/>
       <use xlink:href="#Junicode-20" x="112.304688"/>
      </g>
     </g>
    </g>
   </g>
   <g id="matplotlib.axis_2">
    <g id="ytick_1">
     <g id="line2d_26">
      <path d="M 63.05625 466.36375 
L 995.04 466.36375 
" clip-path="url(#pd0c62ef81c)" style="fill: none; stroke: #ffffff; stroke-linecap: round"/>
     </g>
     <g id="text_26">
      <!-- 0.00 -->
      <g style="fill: #262626" transform="translate(32.149219 470.300547) scale(0.11 -0.11)">
       <defs>
        <path id="ArialMT-30" d="M 266 2259 
Q 266 3072 433 3567 
Q 600 4063 929 4331 
Q 1259 4600 1759 4600 
Q 2128 4600 2406 4451 
Q 2684 4303 2865 4023 
Q 3047 3744 3150 3342 
Q 3253 2941 3253 2259 
Q 3253 1453 3087 958 
Q 2922 463 2592 192 
Q 2263 -78 1759 -78 
Q 1097 -78 719 397 
Q 266 969 266 2259 
z
M 844 2259 
Q 844 1131 1108 757 
Q 1372 384 1759 384 
Q 2147 384 2411 759 
Q 2675 1134 2675 2259 
Q 2675 3391 2411 3762 
Q 2147 4134 1753 4134 
Q 1366 4134 1134 3806 
Q 844 3388 844 2259 
z
" transform="scale(0.015625)"/>
        <path id="ArialMT-2e" d="M 581 0 
L 581 641 
L 1222 641 
L 1222 0 
L 581 0 
z
" transform="scale(0.015625)"/>
       </defs>
       <use xlink:href="#ArialMT-30"/>
       <use xlink:href="#ArialMT-2e" x="55.615234"/>
       <use xlink:href="#ArialMT-30" x="83.398438"/>
       <use xlink:href="#ArialMT-30" x="139.013672"/>
      </g>
     </g>
    </g>
    <g id="ytick_2">
     <g id="line2d_27">
      <path d="M 63.05625 379.043 
L 995.04 379.043 
" clip-path="url(#pd0c62ef81c)" style="fill: none; stroke: #ffffff; stroke-linecap: round"/>
     </g>
     <g id="text_27">
      <!-- 0.05 -->
      <g style="fill: #262626" transform="translate(32.149219 382.979797) scale(0.11 -0.11)">
       <defs>
        <path id="ArialMT-35" d="M 266 1200 
L 856 1250 
Q 922 819 1161 601 
Q 1400 384 1738 384 
Q 2144 384 2425 690 
Q 2706 997 2706 1503 
Q 2706 1984 2436 2262 
Q 2166 2541 1728 2541 
Q 1456 2541 1237 2417 
Q 1019 2294 894 2097 
L 366 2166 
L 809 4519 
L 3088 4519 
L 3088 3981 
L 1259 3981 
L 1013 2750 
Q 1425 3038 1878 3038 
Q 2478 3038 2890 2622 
Q 3303 2206 3303 1553 
Q 3303 931 2941 478 
Q 2500 -78 1738 -78 
Q 1113 -78 717 272 
Q 322 622 266 1200 
z
" transform="scale(0.015625)"/>
       </defs>
       <use xlink:href="#ArialMT-30"/>
       <use xlink:href="#ArialMT-2e" x="55.615234"/>
       <use xlink:href="#ArialMT-30" x="83.398438"/>
       <use xlink:href="#ArialMT-35" x="139.013672"/>
      </g>
     </g>
    </g>
    <g id="ytick_3">
     <g id="line2d_28">
      <path d="M 63.05625 291.72225 
L 995.04 291.72225 
" clip-path="url(#pd0c62ef81c)" style="fill: none; stroke: #ffffff; stroke-linecap: round"/>
     </g>
     <g id="text_28">
      <!-- 0.10 -->
      <g style="fill: #262626" transform="translate(32.149219 295.659047) scale(0.11 -0.11)">
       <defs>
        <path id="ArialMT-31" d="M 2384 0 
L 1822 0 
L 1822 3584 
Q 1619 3391 1289 3197 
Q 959 3003 697 2906 
L 697 3450 
Q 1169 3672 1522 3987 
Q 1875 4303 2022 4600 
L 2384 4600 
L 2384 0 
z
" transform="scale(0.015625)"/>
       </defs>
       <use xlink:href="#ArialMT-30"/>
       <use xlink:href="#ArialMT-2e" x="55.615234"/>
       <use xlink:href="#ArialMT-31" x="83.398438"/>
       <use xlink:href="#ArialMT-30" x="139.013672"/>
      </g>
     </g>
    </g>
    <g id="ytick_4">
     <g id="line2d_29">
      <path d="M 63.05625 204.4015 
L 995.04 204.4015 
" clip-path="url(#pd0c62ef81c)" style="fill: none; stroke: #ffffff; stroke-linecap: round"/>
     </g>
     <g id="text_29">
      <!-- 0.15 -->
      <g style="fill: #262626" transform="translate(32.149219 208.338297) scale(0.11 -0.11)">
       <use xlink:href="#ArialMT-30"/>
       <use xlink:href="#ArialMT-2e" x="55.615234"/>
       <use xlink:href="#ArialMT-31" x="83.398438"/>
       <use xlink:href="#ArialMT-35" x="139.013672"/>
      </g>
     </g>
    </g>
    <g id="ytick_5">
     <g id="line2d_30">
      <path d="M 63.05625 117.08075 
L 995.04 117.08075 
" clip-path="url(#pd0c62ef81c)" style="fill: none; stroke: #ffffff; stroke-linecap: round"/>
     </g>
     <g id="text_30">
      <!-- 0.20 -->
      <g style="fill: #262626" transform="translate(32.149219 121.017547) scale(0.11 -0.11)">
       <defs>
        <path id="ArialMT-32" d="M 3222 541 
L 3222 0 
L 194 0 
Q 188 203 259 391 
Q 375 700 629 1000 
Q 884 1300 1366 1694 
Q 2113 2306 2375 2664 
Q 2638 3022 2638 3341 
Q 2638 3675 2398 3904 
Q 2159 4134 1775 4134 
Q 1369 4134 1125 3890 
Q 881 3647 878 3216 
L 300 3275 
Q 359 3922 746 4261 
Q 1134 4600 1788 4600 
Q 2447 4600 2831 4234 
Q 3216 3869 3216 3328 
Q 3216 3053 3103 2787 
Q 2991 2522 2730 2228 
Q 2469 1934 1863 1422 
Q 1356 997 1212 845 
Q 1069 694 975 541 
L 3222 541 
z
" transform="scale(0.015625)"/>
       </defs>
       <use xlink:href="#ArialMT-30"/>
       <use xlink:href="#ArialMT-2e" x="55.615234"/>
       <use xlink:href="#ArialMT-32" x="83.398438"/>
       <use xlink:href="#ArialMT-30" x="139.013672"/>
      </g>
     </g>
    </g>
    <g id="ytick_6">
     <g id="line2d_31">
      <path d="M 63.05625 29.76 
L 995.04 29.76 
" clip-path="url(#pd0c62ef81c)" style="fill: none; stroke: #ffffff; stroke-linecap: round"/>
     </g>
     <g id="text_31">
      <!-- 0.25 -->
      <g style="fill: #262626" transform="translate(32.149219 33.696797) scale(0.11 -0.11)">
       <use xlink:href="#ArialMT-30"/>
       <use xlink:href="#ArialMT-2e" x="55.615234"/>
       <use xlink:href="#ArialMT-32" x="83.398438"/>
       <use xlink:href="#ArialMT-35" x="139.013672"/>
      </g>
     </g>
    </g>
    <g id="text_32">
     <!-- Mean Decrease in Impurity -->
     <g style="fill: #262626" transform="translate(24.054688 328.402109) rotate(-90) scale(0.15 -0.15)">
      <defs>
       <path id="Junicode-4d" d="M 713 581 
L 897 3531 
Q 900 3566 900 3612 
Q 900 3659 870 3759 
Q 841 3859 708 3940 
Q 575 4022 303 4022 
Q 263 4022 263 4140 
Q 263 4259 303 4259 
Q 444 4244 770 4244 
Q 1097 4244 1195 4195 
Q 1294 4147 1356 4016 
L 2831 866 
Q 2872 781 2900 781 
Q 2928 781 2972 872 
L 4488 4034 
Q 4556 4178 4662 4211 
Q 4769 4244 5075 4244 
Q 5381 4244 5531 4259 
Q 5575 4259 5575 4140 
Q 5575 4022 5531 4022 
Q 5266 4022 5142 3937 
Q 5019 3853 4981 3739 
Q 4944 3625 4944 3456 
L 4966 581 
Q 4969 216 5463 216 
Q 5506 216 5506 97 
Q 5506 -22 5463 -22 
Q 5228 0 4747 0 
Q 4266 0 4000 -22 
Q 3956 -22 3956 97 
Q 3956 216 4000 216 
Q 4466 216 4466 581 
L 4453 3247 
Q 4453 3288 4425 3288 
Q 4397 3288 4381 3250 
L 2800 -19 
Q 2775 -72 2731 -72 
Q 2688 -72 2663 -19 
L 1213 3253 
Q 1188 3306 1159 3306 
Q 1131 3306 1128 3253 
L 969 581 
L 969 525 
Q 969 488 998 406 
Q 1028 325 1150 270 
Q 1272 216 1463 216 
Q 1506 216 1506 97 
Q 1506 -22 1463 -22 
Q 1209 0 846 0 
Q 484 0 222 -22 
Q 181 -22 181 97 
Q 181 216 222 216 
Q 691 216 713 581 
z
" transform="scale(0.015625)"/>
       <path id="Junicode-61" d="M 1503 622 
L 1503 1294 
Q 1503 1363 1459 1363 
Q 1438 1363 1272 1281 
Q 741 1016 741 588 
Q 741 434 839 339 
Q 938 244 1113 244 
Q 1238 244 1370 376 
Q 1503 509 1503 622 
z
M 2438 384 
Q 2506 375 2528 291 
Q 2528 281 2525 275 
Q 2397 59 2287 -6 
Q 2178 -72 2000 -72 
Q 1672 -72 1556 353 
Q 1319 116 1178 22 
Q 1038 -72 766 -72 
Q 591 -72 475 25 
Q 359 122 311 248 
Q 263 375 263 506 
Q 263 638 325 764 
Q 388 891 508 992 
Q 628 1094 716 1141 
L 1441 1544 
Q 1503 1578 1503 1644 
L 1503 2209 
Q 1503 2484 1088 2484 
Q 784 2484 666 2328 
Q 650 2306 619 2038 
Q 581 1728 403 1728 
Q 231 1728 231 1903 
Q 231 2078 357 2254 
Q 484 2431 575 2484 
Q 975 2719 1344 2719 
Q 1566 2719 1773 2594 
Q 1981 2469 1981 2284 
L 1981 622 
Q 1981 263 2191 263 
Q 2250 263 2416 378 
Q 2425 384 2438 384 
z
" transform="scale(0.015625)"/>
       <path id="Junicode-44" d="M 847 581 
L 847 3663 
Q 847 4006 256 4006 
Q 213 4006 213 4125 
Q 213 4244 256 4244 
Q 694 4225 1006 4225 
Q 1319 4225 1659 4234 
Q 2000 4244 2197 4244 
Q 3169 4244 3822 3722 
Q 4475 3200 4475 2275 
Q 4475 1269 3901 623 
Q 3328 -22 2347 -22 
Q 2197 -22 1739 -11 
Q 1281 0 975 0 
Q 669 0 284 -22 
Q 244 -22 244 95 
Q 244 213 284 216 
Q 847 216 847 581 
z
M 1347 931 
Q 1347 466 1534 316 
Q 1722 166 2131 166 
Q 2931 166 3404 731 
Q 3878 1297 3878 2238 
Q 3878 3025 3325 3539 
Q 2772 4053 1941 4053 
Q 1644 4053 1548 4026 
Q 1453 4000 1400 3914 
Q 1347 3828 1347 3691 
L 1347 931 
z
" transform="scale(0.015625)"/>
       <path id="Junicode-72" d="M 1816 2719 
Q 1916 2719 1981 2684 
Q 2047 2650 2103 2578 
Q 2159 2506 2159 2369 
Q 2159 2331 2128 2262 
Q 2097 2194 2031 2144 
Q 1969 2094 1900 2094 
Q 1831 2094 1689 2170 
Q 1547 2247 1475 2247 
Q 1284 2247 1153 2058 
Q 1022 1869 1022 1544 
L 1022 397 
Q 1022 153 1494 153 
Q 1538 153 1538 64 
Q 1538 -25 1494 -25 
Q 1231 0 837 0 
Q 444 0 184 -25 
Q 141 -25 141 64 
Q 141 153 184 153 
Q 544 153 544 397 
L 544 1841 
Q 544 2194 281 2194 
Q 228 2194 228 2281 
Q 228 2369 281 2369 
Q 400 2369 622 2519 
Q 844 2669 895 2714 
Q 947 2759 981 2759 
Q 1034 2759 1034 2681 
Q 1022 2528 1022 2401 
Q 1022 2275 1064 2275 
Q 1106 2275 1150 2338 
Q 1428 2719 1816 2719 
z
" transform="scale(0.015625)"/>
       <path id="Junicode-49" d="M 847 581 
L 847 3663 
Q 847 4022 256 4022 
Q 213 4022 213 4140 
Q 213 4259 256 4259 
Q 394 4244 1081 4244 
Q 1769 4244 1909 4259 
Q 1950 4259 1950 4140 
Q 1950 4022 1909 4022 
Q 1347 4022 1347 3663 
L 1347 581 
Q 1347 216 1909 216 
Q 1950 216 1950 97 
Q 1950 -22 1909 -22 
Q 1641 0 1100 0 
Q 559 0 291 -22 
Q 250 -22 250 97 
Q 250 216 291 216 
Q 847 216 847 581 
z
" transform="scale(0.015625)"/>
       <path id="Junicode-6d" d="M 250 -25 
Q 206 -25 206 64 
Q 206 153 250 153 
Q 628 153 628 397 
L 628 1806 
Q 628 2194 366 2194 
Q 313 2194 313 2281 
Q 313 2369 366 2369 
Q 444 2369 626 2476 
Q 809 2584 920 2671 
Q 1031 2759 1072 2759 
Q 1119 2759 1119 2717 
Q 1119 2675 1111 2584 
Q 1103 2494 1103 2422 
Q 1103 2350 1141 2350 
Q 1169 2350 1194 2375 
Q 1519 2719 1981 2719 
Q 2394 2719 2656 2338 
Q 2691 2288 2717 2288 
Q 2744 2288 2778 2328 
Q 3131 2719 3634 2719 
Q 4016 2719 4202 2506 
Q 4388 2294 4439 2136 
Q 4491 1978 4491 1766 
L 4491 397 
Q 4491 153 4853 153 
Q 4897 153 4897 64 
Q 4897 -25 4853 -25 
Q 4613 0 4263 0 
Q 3913 0 3669 -25 
Q 3625 -25 3625 64 
Q 3625 153 3669 153 
Q 4013 153 4013 397 
L 4013 1813 
Q 4013 2178 3836 2308 
Q 3659 2438 3391 2438 
Q 3119 2438 2958 2181 
Q 2797 1925 2797 1491 
L 2797 397 
Q 2797 153 3156 153 
Q 3200 153 3200 64 
Q 3200 -25 3156 -25 
Q 2906 0 2562 0 
Q 2219 0 1975 -25 
Q 1931 -25 1931 64 
Q 1931 153 1975 153 
Q 2319 153 2319 397 
L 2319 1663 
Q 2319 1944 2269 2122 
Q 2219 2300 2117 2369 
Q 2016 2438 1784 2438 
Q 1644 2438 1542 2384 
Q 1441 2331 1342 2256 
Q 1244 2181 1175 2075 
Q 1106 1969 1106 1844 
L 1106 397 
Q 1106 153 1438 153 
Q 1481 153 1481 64 
Q 1481 -25 1438 -25 
Q 1200 0 850 0 
Q 500 0 250 -25 
z
" transform="scale(0.015625)"/>
       <path id="Junicode-70" d="M 2953 1306 
Q 2953 688 2611 308 
Q 2269 -72 1659 -72 
Q 1316 -72 1216 -39 
Q 1116 -6 1103 -6 
Q 1022 -6 1022 -109 
L 1022 -1300 
Q 1022 -1569 1494 -1569 
Q 1538 -1569 1538 -1658 
Q 1538 -1747 1494 -1747 
Q 1228 -1722 831 -1722 
Q 434 -1722 184 -1747 
Q 141 -1747 141 -1658 
Q 141 -1569 184 -1569 
Q 544 -1569 544 -1306 
L 544 1816 
Q 544 2203 275 2203 
Q 222 2203 222 2289 
Q 222 2375 275 2375 
Q 366 2375 584 2500 
Q 803 2625 870 2692 
Q 938 2759 986 2759 
Q 1034 2759 1034 2717 
Q 1034 2675 1028 2584 
Q 1022 2494 1022 2447 
Q 1022 2400 1072 2400 
Q 1100 2400 1128 2425 
Q 1391 2719 1713 2719 
Q 2063 2719 2356 2505 
Q 2650 2291 2801 2025 
Q 2953 1759 2953 1306 
z
M 2409 1313 
Q 2409 2463 1584 2463 
Q 1322 2463 1084 2150 
Q 1022 2069 1022 1856 
L 1022 641 
Q 1022 128 1613 128 
Q 2050 128 2229 475 
Q 2409 822 2409 1313 
z
" transform="scale(0.015625)"/>
       <path id="Junicode-75" d="M 3153 97 
Q 3066 88 2727 11 
Q 2388 -66 2297 -100 
Q 2288 -103 2275 -103 
Q 2225 -103 2225 38 
L 2225 178 
Q 2225 253 2189 253 
Q 2153 253 2103 206 
Q 1806 -72 1372 -72 
Q 1044 -72 794 259 
Q 544 591 544 941 
L 544 1988 
Q 544 2447 197 2447 
Q 150 2447 150 2534 
Q 150 2622 197 2622 
Q 525 2622 726 2650 
Q 928 2678 987 2678 
Q 1047 2678 1047 2628 
Q 1022 2244 1022 2153 
L 1022 1044 
Q 1022 684 1145 457 
Q 1269 231 1525 231 
Q 1800 231 2012 393 
Q 2225 556 2225 788 
L 2225 1988 
Q 2225 2447 1878 2447 
Q 1831 2447 1831 2534 
Q 1831 2622 1878 2622 
Q 2263 2622 2442 2650 
Q 2622 2678 2659 2678 
Q 2722 2678 2722 2594 
Q 2703 2322 2703 2159 
L 2703 709 
Q 2703 444 2772 350 
Q 2841 256 2900 256 
Q 2959 256 3032 265 
Q 3106 275 3120 275 
Q 3134 275 3148 261 
Q 3163 247 3170 206 
Q 3178 166 3178 144 
Q 3178 100 3153 97 
z
" transform="scale(0.015625)"/>
       <path id="Junicode-79" d="M 256 2284 
Q 175 2509 -122 2509 
Q -166 2509 -166 2592 
Q -166 2675 -122 2675 
Q 56 2656 453 2656 
Q 850 2656 1038 2675 
Q 1081 2675 1081 2592 
Q 1081 2509 1038 2509 
Q 738 2509 738 2338 
Q 738 2288 750 2247 
L 1294 672 
Q 1325 575 1372 575 
Q 1419 575 1459 678 
L 2069 2247 
Q 2088 2288 2088 2328 
Q 2088 2509 1684 2509 
Q 1641 2509 1641 2592 
Q 1641 2675 1684 2675 
Q 1863 2656 2194 2656 
Q 2525 2656 2706 2675 
Q 2750 2675 2750 2592 
Q 2750 2509 2706 2509 
Q 2406 2509 2316 2284 
L 934 -1306 
Q 856 -1506 704 -1617 
Q 553 -1728 403 -1728 
Q 253 -1728 175 -1650 
Q 97 -1572 97 -1491 
Q 97 -1253 392 -1253 
Q 688 -1253 769 -1056 
L 1069 -306 
Q 1103 -228 1103 -184 
Q 1103 -141 1063 -25 
L 256 2284 
z
" transform="scale(0.015625)"/>
      </defs>
      <use xlink:href="#Junicode-4d"/>
      <use xlink:href="#Junicode-65" x="90.234375"/>
      <use xlink:href="#Junicode-61" x="131.152344"/>
      <use xlink:href="#Junicode-6e" x="170.068359"/>
      <use xlink:href="#Junicode-20" x="222.265625"/>
      <use xlink:href="#Junicode-44" x="249.560547"/>
      <use xlink:href="#Junicode-65" x="324.023438"/>
      <use xlink:href="#Junicode-63" x="364.941406"/>
      <use xlink:href="#Junicode-72" x="404.833984"/>
      <use xlink:href="#Junicode-65" x="438.818359"/>
      <use xlink:href="#Junicode-61" x="479.736328"/>
      <use xlink:href="#Junicode-73" x="518.652344"/>
      <use xlink:href="#Junicode-65" x="553.173828"/>
      <use xlink:href="#Junicode-20" x="594.091797"/>
      <use xlink:href="#Junicode-69" x="621.386719"/>
      <use xlink:href="#Junicode-6e" x="646.972656"/>
      <use xlink:href="#Junicode-20" x="699.169922"/>
      <use xlink:href="#Junicode-49" x="726.464844"/>
      <use xlink:href="#Junicode-6d" x="759.814453"/>
      <use xlink:href="#Junicode-70" x="838.28125"/>
      <use xlink:href="#Junicode-75" x="887.158203"/>
      <use xlink:href="#Junicode-72" x="937.744141"/>
      <use xlink:href="#Junicode-69" x="971.728516"/>
      <use xlink:href="#Junicode-74" x="997.314453"/>
      <use xlink:href="#Junicode-79" x="1030.224609"/>
     </g>
    </g>
   </g>
   <g id="patch_3">
    <path d="M 72.376088 466.36375 
L 91.015763 466.36375 
L 91.015763 344.081194 
L 72.376088 344.081194 
z
" clip-path="url(#pd0c62ef81c)" style="fill: #4c72b0; stroke: #ffffff; stroke-linejoin: miter"/>
   </g>
   <g id="patch_4">
    <path d="M 109.655438 466.36375 
L 128.295113 466.36375 
L 128.295113 394.696941 
L 109.655438 394.696941 
z
" clip-path="url(#pd0c62ef81c)" style="fill: #4c72b0; stroke: #ffffff; stroke-linejoin: miter"/>
   </g>
   <g id="patch_5">
    <path d="M 146.934788 466.36375 
L 165.574463 466.36375 
L 165.574463 402.92564 
L 146.934788 402.92564 
z
" clip-path="url(#pd0c62ef81c)" style="fill: #4c72b0; stroke: #ffffff; stroke-linejoin: miter"/>
   </g>
   <g id="patch_6">
    <path d="M 184.214138 466.36375 
L 202.853813 466.36375 
L 202.853813 403.047928 
L 184.214138 403.047928 
z
" clip-path="url(#pd0c62ef81c)" style="fill: #4c72b0; stroke: #ffffff; stroke-linejoin: miter"/>
   </g>
   <g id="patch_7">
    <path d="M 221.493488 466.36375 
L 240.133163 466.36375 
L 240.133163 406.231063 
L 221.493488 406.231063 
z
" clip-path="url(#pd0c62ef81c)" style="fill: #4c72b0; stroke: #ffffff; stroke-linejoin: miter"/>
   </g>
   <g id="patch_8">
    <path d="M 258.772838 466.36375 
L 277.412513 466.36375 
L 277.412513 408.198632 
L 258.772838 408.198632 
z
" clip-path="url(#pd0c62ef81c)" style="fill: #4c72b0; stroke: #ffffff; stroke-linejoin: miter"/>
   </g>
   <g id="patch_9">
    <path d="M 296.052188 466.36375 
L 314.691863 466.36375 
L 314.691863 410.582629 
L 296.052188 410.582629 
z
" clip-path="url(#pd0c62ef81c)" style="fill: #4c72b0; stroke: #ffffff; stroke-linejoin: miter"/>
   </g>
   <g id="patch_10">
    <path d="M 333.331538 466.36375 
L 351.971213 466.36375 
L 351.971213 411.734633 
L 333.331538 411.734633 
z
" clip-path="url(#pd0c62ef81c)" style="fill: #4c72b0; stroke: #ffffff; stroke-linejoin: miter"/>
   </g>
   <g id="patch_11">
    <path d="M 370.610887 466.36375 
L 389.250563 466.36375 
L 389.250563 414.341719 
L 370.610887 414.341719 
z
" clip-path="url(#pd0c62ef81c)" style="fill: #4c72b0; stroke: #ffffff; stroke-linejoin: miter"/>
   </g>
   <g id="patch_12">
    <path d="M 407.890238 466.36375 
L 426.529913 466.36375 
L 426.529913 416.422866 
L 407.890238 416.422866 
z
" clip-path="url(#pd0c62ef81c)" style="fill: #4c72b0; stroke: #ffffff; stroke-linejoin: miter"/>
   </g>
   <g id="patch_13">
    <path d="M 445.169588 466.36375 
L 463.809263 466.36375 
L 463.809263 418.720451 
L 445.169588 418.720451 
z
" clip-path="url(#pd0c62ef81c)" style="fill: #4c72b0; stroke: #ffffff; stroke-linejoin: miter"/>
   </g>
   <g id="patch_14">
    <path d="M 482.448938 466.36375 
L 501.088613 466.36375 
L 501.088613 420.110494 
L 482.448938 420.110494 
z
" clip-path="url(#pd0c62ef81c)" style="fill: #4c72b0; stroke: #ffffff; stroke-linejoin: miter"/>
   </g>
   <g id="patch_15">
    <path d="M 519.728288 466.36375 
L 538.367963 466.36375 
L 538.367963 421.269932 
L 519.728288 421.269932 
z
" clip-path="url(#pd0c62ef81c)" style="fill: #4c72b0; stroke: #ffffff; stroke-linejoin: miter"/>
   </g>
   <g id="patch_16">
    <path d="M 557.007637 466.36375 
L 575.647312 466.36375 
L 575.647312 421.6542 
L 557.007637 421.6542 
z
" clip-path="url(#pd0c62ef81c)" style="fill: #4c72b0; stroke: #ffffff; stroke-linejoin: miter"/>
   </g>
   <g id="patch_17">
    <path d="M 594.286988 466.36375 
L 612.926663 466.36375 
L 612.926663 423.125585 
L 594.286988 423.125585 
z
" clip-path="url(#pd0c62ef81c)" style="fill: #4c72b0; stroke: #ffffff; stroke-linejoin: miter"/>
   </g>
   <g id="patch_18">
    <path d="M 631.566338 466.36375 
L 650.206013 466.36375 
L 650.206013 424.182561 
L 631.566338 424.182561 
z
" clip-path="url(#pd0c62ef81c)" style="fill: #4c72b0; stroke: #ffffff; stroke-linejoin: miter"/>
   </g>
   <g id="patch_19">
    <path d="M 668.845688 466.36375 
L 687.485363 466.36375 
L 687.485363 428.2251 
L 668.845688 428.2251 
z
" clip-path="url(#pd0c62ef81c)" style="fill: #4c72b0; stroke: #ffffff; stroke-linejoin: miter"/>
   </g>
   <g id="patch_20">
    <path d="M 706.125037 466.36375 
L 724.764712 466.36375 
L 724.764712 434.117639 
L 706.125037 434.117639 
z
" clip-path="url(#pd0c62ef81c)" style="fill: #4c72b0; stroke: #ffffff; stroke-linejoin: miter"/>
   </g>
   <g id="patch_21">
    <path d="M 743.404387 466.36375 
L 762.044062 466.36375 
L 762.044062 436.376259 
L 743.404387 436.376259 
z
" clip-path="url(#pd0c62ef81c)" style="fill: #4c72b0; stroke: #ffffff; stroke-linejoin: miter"/>
   </g>
   <g id="patch_22">
    <path d="M 780.683738 466.36375 
L 799.323413 466.36375 
L 799.323413 439.15933 
L 780.683738 439.15933 
z
" clip-path="url(#pd0c62ef81c)" style="fill: #4c72b0; stroke: #ffffff; stroke-linejoin: miter"/>
   </g>
   <g id="patch_23">
    <path d="M 817.963088 466.36375 
L 836.602763 466.36375 
L 836.602763 439.576011 
L 817.963088 439.576011 
z
" clip-path="url(#pd0c62ef81c)" style="fill: #4c72b0; stroke: #ffffff; stroke-linejoin: miter"/>
   </g>
   <g id="patch_24">
    <path d="M 855.242438 466.36375 
L 873.882113 466.36375 
L 873.882113 440.242274 
L 855.242438 440.242274 
z
" clip-path="url(#pd0c62ef81c)" style="fill: #4c72b0; stroke: #ffffff; stroke-linejoin: miter"/>
   </g>
   <g id="patch_25">
    <path d="M 892.521787 466.36375 
L 911.161462 466.36375 
L 911.161462 441.168667 
L 892.521787 441.168667 
z
" clip-path="url(#pd0c62ef81c)" style="fill: #4c72b0; stroke: #ffffff; stroke-linejoin: miter"/>
   </g>
   <g id="patch_26">
    <path d="M 929.801137 466.36375 
L 948.440812 466.36375 
L 948.440812 441.931467 
L 929.801137 441.931467 
z
" clip-path="url(#pd0c62ef81c)" style="fill: #4c72b0; stroke: #ffffff; stroke-linejoin: miter"/>
   </g>
   <g id="patch_27">
    <path d="M 967.080488 466.36375 
L 985.720163 466.36375 
L 985.720163 442.168708 
L 967.080488 442.168708 
z
" clip-path="url(#pd0c62ef81c)" style="fill: #4c72b0; stroke: #ffffff; stroke-linejoin: miter"/>
   </g>
   <g id="LineCollection_1">
    <path d="M 81.695925 505 
L 81.695925 -1 
" clip-path="url(#pd0c62ef81c)" style="fill: none; stroke: #262626; stroke-width: 1.5"/>
    <path d="M 118.975275 505 
L 118.975275 85.492437 
" clip-path="url(#pd0c62ef81c)" style="fill: none; stroke: #262626; stroke-width: 1.5"/>
    <path d="M 156.254625 505 
L 156.254625 102.900377 
" clip-path="url(#pd0c62ef81c)" style="fill: none; stroke: #262626; stroke-width: 1.5"/>
    <path d="M 193.533975 505 
L 193.533975 124.561741 
" clip-path="url(#pd0c62ef81c)" style="fill: none; stroke: #262626; stroke-width: 1.5"/>
    <path d="M 230.813325 505 
L 230.813325 157.297115 
" clip-path="url(#pd0c62ef81c)" style="fill: none; stroke: #262626; stroke-width: 1.5"/>
    <path d="M 268.092675 505 
L 268.092675 178.609903 
" clip-path="url(#pd0c62ef81c)" style="fill: none; stroke: #262626; stroke-width: 1.5"/>
    <path d="M 305.372025 505 
L 305.372025 171.808436 
" clip-path="url(#pd0c62ef81c)" style="fill: none; stroke: #262626; stroke-width: 1.5"/>
    <path d="M 342.651375 505 
L 342.651375 148.474684 
" clip-path="url(#pd0c62ef81c)" style="fill: none; stroke: #262626; stroke-width: 1.5"/>
    <path d="M 379.930725 505 
L 379.930725 185.768848 
" clip-path="url(#pd0c62ef81c)" style="fill: none; stroke: #262626; stroke-width: 1.5"/>
    <path d="M 417.210075 505 
L 417.210075 182.119299 
" clip-path="url(#pd0c62ef81c)" style="fill: none; stroke: #262626; stroke-width: 1.5"/>
    <path d="M 454.489425 505 
L 454.489425 189.530953 
" clip-path="url(#pd0c62ef81c)" style="fill: none; stroke: #262626; stroke-width: 1.5"/>
    <path d="M 491.768775 505 
L 491.768775 233.948782 
" clip-path="url(#pd0c62ef81c)" style="fill: none; stroke: #262626; stroke-width: 1.5"/>
    <path d="M 529.048125 505 
L 529.048125 207.476099 
" clip-path="url(#pd0c62ef81c)" style="fill: none; stroke: #262626; stroke-width: 1.5"/>
    <path d="M 566.327475 505 
L 566.327475 191.988404 
" clip-path="url(#pd0c62ef81c)" style="fill: none; stroke: #262626; stroke-width: 1.5"/>
    <path d="M 603.606825 505 
L 603.606825 221.717021 
" clip-path="url(#pd0c62ef81c)" style="fill: none; stroke: #262626; stroke-width: 1.5"/>
    <path d="M 640.886175 505 
L 640.886175 209.864864 
" clip-path="url(#pd0c62ef81c)" style="fill: none; stroke: #262626; stroke-width: 1.5"/>
    <path d="M 678.165525 505 
L 678.165525 237.10382 
" clip-path="url(#pd0c62ef81c)" style="fill: none; stroke: #262626; stroke-width: 1.5"/>
    <path d="M 715.444875 505 
L 715.444875 271.461083 
" clip-path="url(#pd0c62ef81c)" style="fill: none; stroke: #262626; stroke-width: 1.5"/>
    <path d="M 752.724225 505 
L 752.724225 262.453075 
" clip-path="url(#pd0c62ef81c)" style="fill: none; stroke: #262626; stroke-width: 1.5"/>
    <path d="M 790.003575 505 
L 790.003575 286.396136 
" clip-path="url(#pd0c62ef81c)" style="fill: none; stroke: #262626; stroke-width: 1.5"/>
    <path d="M 827.282925 505 
L 827.282925 305.521097 
" clip-path="url(#pd0c62ef81c)" style="fill: none; stroke: #262626; stroke-width: 1.5"/>
    <path d="M 864.562275 505 
L 864.562275 310.943597 
" clip-path="url(#pd0c62ef81c)" style="fill: none; stroke: #262626; stroke-width: 1.5"/>
    <path d="M 901.841625 505 
L 901.841625 273.916959 
" clip-path="url(#pd0c62ef81c)" style="fill: none; stroke: #262626; stroke-width: 1.5"/>
    <path d="M 939.120975 505 
L 939.120975 297.784092 
" clip-path="url(#pd0c62ef81c)" style="fill: none; stroke: #262626; stroke-width: 1.5"/>
    <path d="M 976.400325 505 
L 976.400325 311.043009 
" clip-path="url(#pd0c62ef81c)" style="fill: none; stroke: #262626; stroke-width: 1.5"/>
   </g>
   <g id="patch_28">
    <path d="M 63.05625 466.36375 
L 63.05625 29.76 
" style="fill: none; stroke: #ffffff; stroke-width: 1.25; stroke-linejoin: miter; stroke-linecap: square"/>
   </g>
   <g id="patch_29">
    <path d="M 995.04 466.36375 
L 995.04 29.76 
" style="fill: none; stroke: #ffffff; stroke-width: 1.25; stroke-linejoin: miter; stroke-linecap: square"/>
   </g>
   <g id="patch_30">
    <path d="M 63.05625 466.36375 
L 995.04 466.36375 
" style="fill: none; stroke: #ffffff; stroke-width: 1.25; stroke-linejoin: miter; stroke-linecap: square"/>
   </g>
   <g id="patch_31">
    <path d="M 63.05625 29.76 
L 995.04 29.76 
" style="fill: none; stroke: #ffffff; stroke-width: 1.25; stroke-linejoin: miter; stroke-linecap: square"/>
   </g>
   <g id="text_33">
    <!-- Random Forest classifier: Ms. V vs SP (feature importances using MDI) -->
    <g style="fill: #262626" transform="translate(317.150859 23.76) scale(0.15 -0.15)">
     <defs>
      <path id="Junicode-52" d="M 847 581 
L 847 3663 
Q 847 4006 256 4006 
Q 213 4006 213 4125 
Q 213 4244 256 4244 
Q 619 4228 919 4228 
Q 1219 4228 1522 4236 
Q 1825 4244 2013 4244 
Q 2731 4244 3140 3942 
Q 3550 3641 3550 3075 
Q 3550 2209 2716 1988 
Q 2675 1975 2675 1915 
Q 2675 1856 2926 1464 
Q 3178 1072 3650 559 
Q 4122 47 4419 47 
Q 4463 47 4463 -8 
Q 4463 -63 4419 -66 
Q 4288 -78 4209 -78 
Q 3675 -78 3390 133 
Q 3106 344 2873 636 
Q 2641 928 2372 1336 
Q 2103 1744 2015 1803 
Q 1928 1863 1754 1863 
Q 1581 1863 1512 1870 
Q 1444 1878 1419 1878 
Q 1394 1878 1370 1862 
Q 1347 1847 1347 1809 
L 1347 581 
Q 1347 216 1953 216 
Q 1994 216 1994 97 
Q 1994 -22 1953 -22 
Q 1713 0 1119 0 
Q 525 0 284 -22 
Q 244 -22 244 95 
Q 244 213 284 216 
Q 847 216 847 581 
z
M 1347 2203 
Q 1347 2106 1465 2081 
Q 1584 2056 1800 2056 
Q 3009 2056 3009 3075 
Q 3009 3484 2681 3767 
Q 2353 4050 1772 4050 
L 1494 4050 
Q 1347 4050 1347 3953 
L 1347 2203 
z
" transform="scale(0.015625)"/>
      <path id="Junicode-64" d="M 206 1284 
Q 206 1875 618 2297 
Q 1031 2719 1691 2719 
Q 1909 2719 2047 2675 
Q 2084 2663 2106 2663 
Q 2150 2663 2150 2741 
L 2150 3659 
Q 2150 4097 1863 4097 
Q 1809 4097 1809 4183 
Q 1809 4269 1863 4269 
Q 1941 4269 2164 4383 
Q 2388 4497 2486 4569 
Q 2584 4641 2617 4641 
Q 2650 4641 2650 4606 
Q 2650 4572 2639 4406 
Q 2628 4241 2628 4100 
L 2628 722 
Q 2628 256 2884 256 
Q 2919 256 2975 265 
Q 3031 275 3040 275 
Q 3050 275 3061 256 
Q 3072 238 3080 200 
Q 3088 163 3088 130 
Q 3088 97 3067 97 
Q 3047 97 2906 70 
Q 2766 44 2497 -20 
Q 2228 -84 2203 -103 
Q 2150 -103 2150 50 
L 2150 178 
Q 2150 250 2114 250 
Q 2078 250 2028 206 
Q 1734 -72 1416 -72 
Q 800 -72 503 311 
Q 206 694 206 1284 
z
M 2150 622 
L 2150 2088 
Q 2150 2322 2081 2381 
Q 1897 2534 1619 2534 
Q 1200 2534 958 2186 
Q 716 1838 716 1375 
Q 716 913 975 572 
Q 1234 231 1575 231 
Q 1819 231 1984 359 
Q 2150 488 2150 622 
z
" transform="scale(0.015625)"/>
      <path id="Junicode-6f" d="M 263 1338 
Q 263 1863 653 2291 
Q 1044 2719 1588 2719 
Q 2131 2719 2509 2291 
Q 2888 1863 2888 1313 
Q 2888 763 2541 345 
Q 2194 -72 1613 -72 
Q 1031 -72 647 370 
Q 263 813 263 1338 
z
M 772 1319 
Q 772 763 1026 448 
Q 1281 134 1575 134 
Q 1875 134 2126 451 
Q 2378 769 2378 1319 
Q 2378 1869 2128 2200 
Q 1878 2531 1581 2534 
Q 1281 2534 1026 2204 
Q 772 1875 772 1319 
z
" transform="scale(0.015625)"/>
      <path id="Junicode-46" d="M 847 581 
L 847 3663 
Q 847 4006 263 4006 
Q 219 4006 219 4125 
Q 219 4244 263 4244 
Q 625 4228 1162 4228 
Q 1700 4228 2197 4236 
Q 2694 4244 3234 4244 
Q 3453 4241 3463 4184 
L 3463 3156 
Q 3463 3100 3344 3100 
Q 3225 3100 3225 3156 
Q 3225 3953 2416 3975 
L 1475 4006 
Q 1347 4006 1347 3878 
L 1347 2334 
Q 1347 2238 1434 2238 
L 1947 2238 
Q 2181 2238 2247 2331 
Q 2313 2425 2313 2644 
L 2313 3009 
Q 2313 3050 2422 3050 
Q 2531 3050 2531 3009 
Q 2506 2791 2506 2123 
Q 2506 1456 2531 1234 
Q 2531 1194 2422 1194 
Q 2313 1194 2313 1234 
L 2313 1600 
Q 2313 1819 2234 1909 
Q 2156 2000 1947 2000 
L 1425 2000 
Q 1347 2000 1347 1922 
L 1347 581 
Q 1347 216 1934 216 
Q 1975 216 1975 97 
Q 1975 -22 1934 -22 
Q 1656 0 1106 0 
Q 556 0 284 -22 
Q 244 -22 244 97 
Q 244 216 284 216 
Q 847 216 847 581 
z
" transform="scale(0.015625)"/>
      <path id="Junicode-6c" d="M 1106 397 
Q 1106 153 1478 153 
Q 1522 153 1522 64 
Q 1522 -25 1478 -25 
Q 1238 0 875 0 
Q 513 0 263 -25 
Q 219 -25 219 64 
Q 219 153 263 153 
Q 628 153 628 397 
L 628 3659 
Q 628 4097 341 4097 
Q 288 4097 288 4183 
Q 288 4269 341 4269 
Q 484 4269 856 4500 
Q 963 4566 1013 4603 
Q 1063 4641 1094 4641 
Q 1125 4641 1125 4594 
Q 1106 4416 1106 4291 
L 1106 397 
z
" transform="scale(0.015625)"/>
      <path id="Junicode-66" d="M 628 397 
L 628 2272 
Q 628 2388 513 2388 
L 281 2388 
Q 234 2388 234 2473 
Q 234 2559 281 2559 
Q 628 2559 628 2828 
L 628 2888 
Q 628 3669 1068 4158 
Q 1509 4647 2100 4647 
Q 2266 4647 2400 4606 
Q 2531 4566 2606 4484 
Q 2681 4406 2681 4275 
Q 2681 4181 2595 4097 
Q 2509 4013 2413 4013 
Q 2238 4013 2095 4183 
Q 1953 4353 1784 4353 
Q 1453 4353 1279 4087 
Q 1106 3822 1106 3441 
L 1106 2772 
Q 1106 2656 1222 2656 
L 1856 2656 
Q 1903 2656 1903 2522 
Q 1903 2388 1856 2388 
L 1222 2388 
Q 1106 2388 1106 2272 
L 1106 397 
Q 1106 153 1569 153 
Q 1613 153 1613 64 
Q 1613 -25 1569 -25 
Q 1303 0 909 0 
Q 516 0 263 -25 
Q 219 -25 219 64 
Q 219 153 263 153 
Q 628 153 628 397 
z
" transform="scale(0.015625)"/>
      <path id="Junicode-3a" d="M 672 306 
Q 672 466 784 562 
Q 897 659 1069 659 
Q 1241 659 1334 543 
Q 1428 428 1428 270 
Q 1428 113 1320 17 
Q 1213 -78 1047 -78 
Q 881 -78 776 34 
Q 672 147 672 306 
z
M 672 2313 
Q 672 2469 786 2566 
Q 900 2663 1070 2663 
Q 1241 2663 1334 2547 
Q 1428 2431 1428 2273 
Q 1428 2116 1322 2020 
Q 1216 1925 1050 1925 
Q 884 1925 778 2037 
Q 672 2150 672 2313 
z
" transform="scale(0.015625)"/>
      <path id="Junicode-56" d="M 563 3663 
Q 438 4022 103 4022 
Q 63 4022 63 4140 
Q 63 4259 103 4259 
Q 241 4244 816 4244 
Q 1391 4244 1534 4259 
Q 1575 4259 1575 4140 
Q 1575 4022 1534 4022 
Q 1088 4022 1088 3791 
Q 1088 3738 1109 3663 
L 2059 913 
Q 2081 850 2112 850 
Q 2144 850 2172 919 
L 3169 3634 
Q 3200 3738 3200 3778 
Q 3200 4022 2881 4022 
Q 2838 4022 2838 4140 
Q 2838 4259 2881 4259 
Q 3025 4244 3487 4244 
Q 3950 4244 4094 4259 
Q 4138 4259 4138 4140 
Q 4138 4022 4094 4022 
Q 3613 4022 3509 3753 
L 2022 -41 
Q 1991 -119 1941 -119 
Q 1888 -119 1841 19 
L 563 3663 
z
" transform="scale(0.015625)"/>
      <path id="Junicode-76" d="M 359 2284 
Q 269 2509 38 2509 
Q -6 2509 -6 2592 
Q -6 2675 38 2675 
Q 219 2656 587 2656 
Q 956 2656 1147 2675 
Q 1191 2675 1191 2592 
Q 1191 2509 1147 2509 
Q 903 2509 903 2338 
Q 903 2284 916 2247 
L 1416 716 
Q 1434 659 1459 659 
Q 1484 659 1503 716 
L 2034 2272 
Q 2047 2303 2047 2344 
Q 2047 2509 1747 2509 
Q 1703 2509 1703 2592 
Q 1703 2675 1747 2675 
Q 1925 2656 2194 2656 
Q 2463 2656 2650 2675 
Q 2694 2675 2694 2592 
Q 2694 2509 2650 2509 
Q 2350 2509 2272 2284 
L 1491 50 
Q 1450 -72 1359 -72 
Q 1269 -72 1234 13 
L 359 2284 
z
" transform="scale(0.015625)"/>
      <path id="Junicode-53" d="M 428 3281 
Q 428 3731 773 4029 
Q 1119 4328 1641 4328 
Q 1966 4328 2236 4264 
Q 2506 4200 2547 4200 
Q 2588 4200 2597 4203 
Q 2684 3888 2716 3397 
Q 2716 3353 2664 3337 
Q 2613 3322 2563 3322 
Q 2513 3322 2500 3366 
Q 2434 3709 2207 3914 
Q 1981 4119 1566 4119 
Q 1253 4119 1059 3911 
Q 866 3703 866 3422 
Q 866 2694 1788 2506 
Q 2950 2269 2950 1219 
Q 2950 625 2608 270 
Q 2266 -84 1731 -84 
Q 1356 -84 1132 -18 
Q 909 47 553 228 
Q 400 713 400 1081 
Q 400 1116 412 1156 
Q 425 1197 519 1197 
Q 613 1197 616 1169 
Q 644 766 964 458 
Q 1284 150 1822 150 
Q 2109 150 2314 375 
Q 2519 600 2519 950 
Q 2519 1688 1694 1875 
Q 431 2169 428 3281 
z
" transform="scale(0.015625)"/>
      <path id="Junicode-50" d="M 847 581 
L 847 3663 
Q 847 4022 256 4022 
Q 216 4022 216 4133 
Q 216 4244 256 4244 
Q 619 4228 962 4228 
Q 1306 4228 1568 4236 
Q 1831 4244 2013 4244 
Q 2644 4244 3066 3934 
Q 3488 3625 3488 3062 
Q 3488 2500 3078 2181 
Q 2669 1863 1994 1863 
Q 1619 1863 1539 1872 
Q 1459 1881 1437 1881 
Q 1416 1881 1381 1868 
Q 1347 1856 1347 1778 
L 1347 581 
Q 1347 216 1928 216 
Q 1969 216 1969 97 
Q 1969 -22 1928 -22 
Q 1688 0 1109 0 
Q 531 0 291 -22 
Q 250 -22 250 95 
Q 250 213 291 216 
Q 847 216 847 581 
z
M 1347 2209 
Q 1347 2103 1483 2079 
Q 1619 2056 1800 2056 
Q 2950 2056 2950 3075 
Q 2950 3478 2628 3764 
Q 2306 4050 1772 4050 
L 1494 4050 
Q 1347 4050 1347 3953 
L 1347 2209 
z
" transform="scale(0.015625)"/>
      <path id="Junicode-28" d="M 500 1838 
Q 500 2656 856 3431 
Q 1213 4206 1772 4738 
Q 1822 4781 1883 4781 
Q 1944 4781 1983 4747 
Q 2022 4713 2022 4681 
Q 2022 4650 1966 4575 
Q 934 3494 934 1838 
Q 934 197 1978 -903 
Q 2022 -947 2022 -997 
Q 2022 -1047 1972 -1076 
Q 1922 -1106 1878 -1106 
Q 1834 -1106 1772 -1056 
Q 1169 -513 834 167 
Q 500 847 500 1838 
z
" transform="scale(0.015625)"/>
      <path id="Junicode-67" d="M 184 -963 
Q 184 -650 769 -231 
Q 819 -188 819 -163 
Q 813 -128 756 -116 
Q 331 6 331 347 
Q 331 506 688 756 
Q 719 778 761 803 
Q 803 828 803 865 
Q 803 903 756 934 
Q 300 1225 300 1681 
Q 300 2138 614 2428 
Q 928 2719 1325 2719 
Q 1722 2719 1994 2598 
Q 2266 2478 2425 2478 
L 2963 2478 
Q 3009 2478 3009 2343 
Q 3009 2209 2963 2209 
L 2444 2209 
Q 2456 2094 2456 1869 
Q 2456 1416 2162 1114 
Q 1869 813 1344 813 
Q 1241 813 1106 825 
Q 1041 825 972 781 
Q 756 641 756 469 
Q 756 219 1222 219 
L 2016 219 
Q 2944 219 2944 -494 
Q 2944 -1025 2445 -1386 
Q 1947 -1747 1338 -1747 
Q 772 -1747 478 -1526 
Q 184 -1306 184 -963 
z
M 684 -788 
Q 684 -1094 912 -1280 
Q 1141 -1466 1572 -1466 
Q 2003 -1466 2281 -1258 
Q 2559 -1050 2559 -756 
Q 2559 -172 1797 -172 
L 1222 -172 
Q 1113 -172 1031 -231 
Q 684 -481 684 -788 
z
M 781 1778 
Q 781 1438 987 1217 
Q 1194 997 1441 997 
Q 1972 997 1972 1697 
Q 1972 2234 1703 2438 
Q 1575 2534 1359 2534 
Q 1144 2534 962 2326 
Q 781 2119 781 1778 
z
" transform="scale(0.015625)"/>
      <path id="Junicode-29" d="M 1594 1838 
Q 1594 1019 1237 244 
Q 881 -531 322 -1063 
Q 272 -1106 211 -1106 
Q 150 -1106 111 -1072 
Q 72 -1038 72 -1006 
Q 72 -975 128 -900 
Q 1159 181 1159 1838 
Q 1159 3478 116 4578 
Q 72 4622 72 4672 
Q 72 4722 122 4751 
Q 172 4781 215 4781 
Q 259 4781 322 4731 
Q 925 4188 1259 3508 
Q 1594 2828 1594 1838 
z
" transform="scale(0.015625)"/>
     </defs>
     <use xlink:href="#Junicode-52"/>
     <use xlink:href="#Junicode-61" x="68.603516"/>
     <use xlink:href="#Junicode-6e" x="107.519531"/>
     <use xlink:href="#Junicode-64" x="159.716797"/>
     <use xlink:href="#Junicode-6f" x="209.130859"/>
     <use xlink:href="#Junicode-6d" x="257.714844"/>
     <use xlink:href="#Junicode-20" x="336.181641"/>
     <use xlink:href="#Junicode-46" x="363.476562"/>
     <use xlink:href="#Junicode-6f" x="420.605469"/>
     <use xlink:href="#Junicode-72" x="469.189453"/>
     <use xlink:href="#Junicode-65" x="503.173828"/>
     <use xlink:href="#Junicode-73" x="544.091797"/>
     <use xlink:href="#Junicode-74" x="578.613281"/>
     <use xlink:href="#Junicode-20" x="611.523438"/>
     <use xlink:href="#Junicode-63" x="638.818359"/>
     <use xlink:href="#Junicode-6c" x="678.710938"/>
     <use xlink:href="#Junicode-61" x="704.296875"/>
     <use xlink:href="#Junicode-73" x="743.212891"/>
     <use xlink:href="#Junicode-73" x="777.734375"/>
     <use xlink:href="#Junicode-69" x="812.255859"/>
     <use xlink:href="#Junicode-66" x="837.841797"/>
     <use xlink:href="#Junicode-69" x="866.357422"/>
     <use xlink:href="#Junicode-65" x="891.943359"/>
     <use xlink:href="#Junicode-72" x="932.861328"/>
     <use xlink:href="#Junicode-3a" x="966.845703"/>
     <use xlink:href="#Junicode-20" x="995.849609"/>
     <use xlink:href="#Junicode-4d" x="1023.144531"/>
     <use xlink:href="#Junicode-73" x="1113.378906"/>
     <use xlink:href="#Junicode-2e" x="1147.900391"/>
     <use xlink:href="#Junicode-20" x="1173.291016"/>
     <use xlink:href="#Junicode-56" x="1200.585938"/>
     <use xlink:href="#Junicode-20" x="1263.427734"/>
     <use xlink:href="#Junicode-76" x="1290.722656"/>
     <use xlink:href="#Junicode-73" x="1331.640625"/>
     <use xlink:href="#Junicode-20" x="1366.162109"/>
     <use xlink:href="#Junicode-53" x="1393.457031"/>
     <use xlink:href="#Junicode-50" x="1444.335938"/>
     <use xlink:href="#Junicode-20" x="1501.171875"/>
     <use xlink:href="#Junicode-28" x="1528.466797"/>
     <use xlink:href="#Junicode-66" x="1561.474609"/>
     <use xlink:href="#Junicode-65" x="1589.990234"/>
     <use xlink:href="#Junicode-61" x="1630.908203"/>
     <use xlink:href="#Junicode-74" x="1669.824219"/>
     <use xlink:href="#Junicode-75" x="1702.734375"/>
     <use xlink:href="#Junicode-72" x="1753.320312"/>
     <use xlink:href="#Junicode-65" x="1787.304688"/>
     <use xlink:href="#Junicode-20" x="1828.222656"/>
     <use xlink:href="#Junicode-69" x="1855.517578"/>
     <use xlink:href="#Junicode-6d" x="1881.103516"/>
     <use xlink:href="#Junicode-70" x="1959.570312"/>
     <use xlink:href="#Junicode-6f" x="2008.447266"/>
     <use xlink:href="#Junicode-72" x="2057.03125"/>
     <use xlink:href="#Junicode-74" x="2091.015625"/>
     <use xlink:href="#Junicode-61" x="2123.925781"/>
     <use xlink:href="#Junicode-6e" x="2162.841797"/>
     <use xlink:href="#Junicode-63" x="2215.039062"/>
     <use xlink:href="#Junicode-65" x="2254.931641"/>
     <use xlink:href="#Junicode-73" x="2295.849609"/>
     <use xlink:href="#Junicode-20" x="2330.371094"/>
     <use xlink:href="#Junicode-75" x="2357.666016"/>
     <use xlink:href="#Junicode-73" x="2408.251953"/>
     <use xlink:href="#Junicode-69" x="2442.773438"/>
     <use xlink:href="#Junicode-6e" x="2468.359375"/>
     <use xlink:href="#Junicode-67" x="2520.556641"/>
     <use xlink:href="#Junicode-20" x="2566.845703"/>
     <use xlink:href="#Junicode-4d" x="2594.140625"/>
     <use xlink:href="#Junicode-44" x="2684.375"/>
     <use xlink:href="#Junicode-49" x="2758.837891"/>
     <use xlink:href="#Junicode-29" x="2792.1875"/>
    </g>
   </g>
  </g>
 </g>
 <defs>
  <clipPath id="pd0c62ef81c">
   <rect x="63.05625" y="29.76" width="931.98375" height="436.60375"/>
  </clipPath>
 </defs>
</svg>
